HIERARCHY
ROOT Hips
{
	OFFSET 0.000000 0.000000 0.000000 
	CHANNELS 6 Xposition Yposition Zposition Zrotation Yrotation Xrotation
	JOINT LeftUpLeg
	{
		OFFSET 1.363060 -1.794630 0.839290 
		CHANNELS 3 Zrotation Yrotation Xrotation
		JOINT LeftLeg
		{
			OFFSET 2.448110 -6.726130 0.000000 
			CHANNELS 3 Zrotation Yrotation Xrotation
			JOINT LeftFoot
			{
				OFFSET 2.562200 -7.039590 0.000000 
				CHANNELS 3 Zrotation Yrotation Xrotation
				JOINT LeftToeBase
				{
					OFFSET 0.157640 -0.433110 2.322550 
					CHANNELS 3 Zrotation Yrotation Xrotation
					End Site
					{
						OFFSET 0.000000 0.000000 0.000000 
					}
				}
			}
		}
	}
	JOINT RightUpLeg
	{
		OFFSET -1.305520 -1.794630 0.839290 
		CHANNELS 3 Zrotation Yrotation Xrotation
		JOINT RightLeg
		{
			OFFSET -2.542530 -6.985550 0.000000 
			CHANNELS 3 Zrotation Yrotation Xrotation
			JOINT RightFoot
			{
				OFFSET -2.568260 -7.056230 0.000000 
				CHANNELS 3 Zrotation Yrotation Xrotation
				JOINT RightToeBase
				{
					OFFSET -0.164730 -0.452590 2.363150 
					CHANNELS 3 Zrotation Yrotation Xrotation
					End Site
					{
						OFFSET 0.000000 0.000000 0.000000 
					}
				}
			}
		}
	}
	JOINT Spine
	{
		OFFSET 0.028270 2.035590 -0.193380 
		CHANNELS 3 Zrotation Yrotation Xrotation
		JOINT Spine1
		{
			OFFSET 0.056720 2.048850 -0.042750 
			CHANNELS 3 Zrotation Yrotation Xrotation
			JOINT Neck1
			{
				OFFSET -0.054170 1.746240 0.172020 
				CHANNELS 3 Zrotation Yrotation Xrotation
				JOINT Head
				{
					OFFSET 0.104070 1.761360 -0.123970 
					CHANNELS 3 Zrotation Yrotation Xrotation
					End Site
					{
						OFFSET 0.000000 0.000000 0.000000 
					}
				}
			}
			JOINT LeftArm
			{
				OFFSET 3.362410 1.200890 -0.311210 
				CHANNELS 3 Zrotation Yrotation Xrotation
				JOINT LeftForeArm
				{
					OFFSET 4.983000 -0.000000 -0.000000 
					CHANNELS 3 Zrotation Yrotation Xrotation
					JOINT LeftHand
					{
						OFFSET 3.483560 -0.000000 -0.000000 
						CHANNELS 3 Zrotation Yrotation Xrotation
						JOINT LeftHandIndex1
						{
							OFFSET 0.715260 -0.000000 -0.000000 
							CHANNELS 3 Zrotation Yrotation Xrotation
							End Site
							{
								OFFSET 0.000000 0.000000 0.000000 
							}
						}
					}
				}
			}
			JOINT RightArm
			{
				OFFSET -3.136600 1.374050 -0.404650 
				CHANNELS 3 Zrotation Yrotation Xrotation
				JOINT RightForeArm
				{
					OFFSET -5.241900 -0.000000 -0.000000 
					CHANNELS 3 Zrotation Yrotation Xrotation
					JOINT RightHand
					{
						OFFSET -3.444170 -0.000000 -0.000000 
						CHANNELS 3 Zrotation Yrotation Xrotation
						JOINT RightHandIndex1
						{
							OFFSET -0.622530 -0.000000 -0.000000 
							CHANNELS 3 Zrotation Yrotation Xrotation
							End Site
							{
								OFFSET 0.000000 0.000000 0.000000 
							}
						}
					}
				}
			}
		}
	}
}
MOTION
Frames: 6
Frame Time: 0.041667
24.512405 14.481567 -9.681598 -96.714202 -87.297839 78.432101 32.730788 5.592081 -8.263903 -58.702783 17.620145 12.509334 15.320477 28.559632 70.499380 3.987500 12.143800 36.242600 -33.141286 3.421444 -8.766351 55.863745 -18.454432 1.063312 -17.782134 -25.207881 73.220899 -0.980400 -6.302700 17.665300 10.308022 49.940392 -12.006841 -7.339428 -14.483029 8.595903 3.608482 23.879323 14.071401 0.269100 11.973400 5.506300 -65.437161 -82.876212 71.327754 30.854373 -24.999410 -13.806002 -2.790639 -11.519509 25.131050 -7.125000 0.000000 0.000000 40.276557 51.700179 38.546990 -33.567690 26.071943 -25.977022 -3.634795 -1.322350 11.827900 7.125000 0.000000 0.000000 
24.512988 14.477193 -9.684660 -96.402722 -86.175405 78.712003 33.283769 5.747202 -8.166763 -58.780849 17.706388 12.748194 15.192166 28.390742 70.465574 3.942000 12.082800 36.025600 -33.204961 3.117858 -8.965020 55.775759 -18.374481 0.959049 -17.816761 -25.073372 73.285735 -0.907300 -6.070000 16.987700 14.940630 49.042247 -17.230102 -9.269030 -13.724572 11.899171 3.377335 23.247894 14.477289 0.121300 11.673600 5.936400 -66.633455 -83.191137 72.908846 28.770997 -23.550977 -13.712045 -2.329290 -11.722437 24.697655 -7.125000 0.000000 0.000000 37.239138 50.211441 36.435714 -32.389958 23.555518 -25.836753 -3.677160 -1.366490 11.995651 7.125000 0.000000 0.000000 
24.522612 14.477922 -9.688160 -96.064075 -87.621105 77.793398 33.082243 5.135260 -8.305878 -58.553826 17.912174 12.775406 15.362838 28.387530 70.367189 3.821200 11.918500 35.444400 -33.016400 2.974575 -8.607656 55.810880 -18.175693 1.165505 -17.738150 -25.090018 73.334190 -0.918300 -6.105700 17.091500 9.127764 49.797375 -10.875546 -7.586203 -14.499949 7.844317 3.482767 23.516016 13.982823 -0.093700 11.786900 5.601000 -64.073116 -82.901968 71.231907 30.641532 -24.068515 -13.774456 -2.615208 -11.782998 24.640080 -7.125000 0.000000 0.000000 40.261916 52.145109 38.390127 -33.220473 25.429423 -25.686698 -3.637710 -1.367239 11.971739 7.125000 0.000000 0.000000 
24.525237 14.464360 -9.685535 -95.896279 -89.009940 77.161740 32.548036 5.405569 -8.451067 -58.480498 17.779329 12.594192 15.408554 28.450284 70.528311 3.732900 11.796200 35.014600 -33.135077 3.103168 -8.424102 55.754251 -18.142097 1.623133 -17.743999 -25.037658 73.269393 -0.919600 -6.109700 17.103100 4.566182 49.837934 -6.218231 -6.167544 -15.112308 4.782430 3.623335 23.706827 13.652610 -0.172500 11.871500 5.421900 -62.288725 -82.316620 69.520641 31.592008 -24.178577 -13.991747 -2.690475 -11.962050 24.632441 -7.125000 0.000000 0.000000 42.162085 53.442512 39.910846 -33.625573 26.566165 -25.526299 -3.592778 -1.384069 12.044336 7.125000 0.000000 0.000000 
24.530487 14.449341 -9.678536 -94.465765 -88.983828 75.739669 33.078402 4.548619 -8.416154 -58.428751 18.014009 12.801501 15.493644 28.436118 70.320057 3.810900 11.904400 35.394500 -32.903719 2.680565 -8.381433 55.684975 -17.899558 1.631698 -17.718115 -24.957587 73.407257 -0.870800 -5.949700 16.638700 4.472050 49.766954 -6.252814 -6.444076 -15.138650 4.795659 3.591121 23.499420 13.753476 -0.246500 11.770300 5.601400 -62.319028 -82.025364 69.273124 31.674609 -24.388479 -14.283438 -2.497994 -12.251737 24.689215 -7.125000 0.000000 0.000000 42.270948 53.785960 39.889975 -33.479715 26.205298 -25.387188 -3.602817 -1.398911 12.354626 7.125000 0.000000 0.000000 
24.538798 14.454590 -9.673140 -92.558335 -88.047683 73.918043 34.126122 2.816964 -8.226941 -58.449657 18.459677 13.082546 15.656596 28.318299 69.871295 3.847400 11.954500 35.571300 -32.295425 2.150625 -8.363575 55.699732 -17.609605 1.101950 -17.663090 -24.935995 73.642907 -0.829500 -5.810500 16.235500 6.467963 49.848201 -7.995613 -7.116437 -15.020618 5.979682 3.455787 23.210176 14.025403 -0.261700 11.623600 5.840500 -63.043123 -81.716154 69.660954 32.240744 -25.393946 -14.454835 -2.228937 -12.331191 24.754121 -7.125000 0.000000 0.000000 42.604304 53.966128 39.766120 -33.617586 26.329168 -25.429870 -3.640474 -1.356672 12.388062 7.125000 0.000000 0.000000 
